<svg width="84" height="17" viewBox="0 0 84 17" fill="none" xmlns="http://www.w3.org/2000/svg">
<path d="M2.57715 15.8232L8.54383 3.88988C9.31385 2.34983 11.5116 2.34983 12.2816 3.88988L16.3794 12.0855C17.1494 13.6255 19.3471 13.6255 20.1172 12.0855L24.215 3.88988C24.985 2.34983 27.1827 2.34983 27.9527 3.88988L32.0505 12.0855C32.8206 13.6255 35.0183 13.6255 35.7883 12.0855L39.8861 3.88988C40.6561 2.34983 42.8539 2.34983 43.6239 3.88988L47.7217 12.0855C48.4917 13.6255 50.6894 13.6255 51.4594 12.0855L55.5572 3.88988C56.3273 2.34983 58.525 2.34983 59.295 3.88988L63.3928 12.0855C64.1628 13.6255 66.3606 13.6255 67.1306 12.0855L71.2284 3.88988C71.9984 2.34983 74.1961 2.34983 74.9661 3.88988L80.9328 15.8232" stroke="#FD5B2F" stroke-width="5.22371"/>
</svg>
